<svg width="2835" height="3010" viewBox="0 0 2835 3010" fill="none" xmlns="http://www.w3.org/2000/svg">
<path fill-rule="evenodd" clip-rule="evenodd" d="M2454.89 1126.33C2567.45 1054.13 2721.04 869.924 2633.75 730.237C2598.3 675.611 2549.96 655.075 2496.89 653.43C2484.24 637.558 2463.22 632.907 2443.6 632.795L2443.71 631.957C2372.01 633.273 2301.53 658.391 2243.86 700.332C2206.67 667.663 2160.49 649.083 2115.76 628.995C2134.52 534.639 2163.14 442.599 2195.65 352.149C2213.19 300.068 2157.62 245.206 2105.23 260.941C2118.12 204.483 2088.5 138.909 2023.98 139.635C1989.48 139.635 1950.45 158.128 1917.09 166.461C1892.38 172.633 1868.05 178.967 1844.2 187.021C1844.09 186.375 1844.03 185.723 1843.96 185.065C1906.45 141.312 1904.27 40.5785 1812.44 50.3463C1773.26 53.8051 1733.43 80.4694 1697.21 96.7512C1637.49 100.347 1580.14 119.323 1522.09 132.941C1363.25 172.342 1193.32 211.934 1062.46 311.91C835.812 399.256 553.918 534.285 525.838 801.195C126.649 646.748 -174.912 1139.93 187.1 1334C258.139 1367.12 340.255 1384.27 417.969 1368.34C399.607 1436.25 382.059 1504.39 365.634 1572.8C227.388 1890.43 115.614 2226.1 155.822 2574.73C156.412 2637.97 237.634 2674.46 282.53 2627.21C319.67 2582.4 364.734 2634.78 352.625 2678.04C341.15 2726.1 374.986 2770.22 424.204 2772C483.103 2775.09 529.886 2735.59 571.566 2699.11C570.765 2699.9 572.665 2698.7 575.434 2696.83C678.279 2939.4 774.641 2750.79 901.399 2859.93C931.019 2887.29 951.803 2919.71 989.75 2937.5C1078.75 2982.59 1149.02 2902.22 1234.03 2892.94C1312.61 2887.16 1390.31 2914.36 1465.67 2932.67C1553.66 2954.03 1642.39 2965.22 1732.78 2955.2C1848.36 2942.37 2078.96 2890.15 2147.21 2847.15C2230.83 2903.27 2316.88 2836.7 2362.84 2760.06C2394.99 2791.01 2455.81 2795.75 2481.64 2748.02C2507.34 2694.8 2555.36 2613.45 2610.59 2625.5C2615.52 2627.01 2618.41 2627.96 2621.42 2630.14C2673.04 2674.03 2739.69 2640.71 2747.24 2576.93C2796.17 2163.7 2696.36 1749.15 2563.64 1360.26C2534.66 1278.94 2510.62 1194.41 2454.89 1126.33Z" fill="#F0ECCF"/>
<path fill-rule="evenodd" clip-rule="evenodd" d="M2409.25 1114.9C2407.17 1109.17 2415.94 1105.88 2418.83 1110.86C2513.68 1273.91 2589.5 1447.11 2654.35 1624.04C2711.75 1780.65 2762.65 1940.28 2798.92 2103.19L2801.38 2114.4C2835.5 2271.61 2852.32 2437.91 2807.57 2594.74L2805.41 2602.2C2795.11 2637.09 2781.5 2672.52 2749.68 2693.24C2722.95 2710.64 2692.71 2712.81 2661.93 2707.98C2636 2703.9 2611.3 2692.6 2585.31 2689.47C2565.72 2687.11 2560.61 2696.52 2554.89 2712.35L2550.15 2725.75C2529.79 2782.55 2504.92 2835.41 2438.49 2847.38C2402.72 2853.83 2363.85 2847.14 2332.86 2828.33C2332.5 2829.54 2332.14 2830.74 2331.84 2831.89L2330.37 2837.49C2323.89 2861.77 2315.55 2886.46 2298.37 2905.34C2274.37 2931.68 2239.96 2941.02 2205.28 2934.03C2189.52 2930.85 2174.72 2923.69 2159.76 2917.73C2156.1 2939.76 2130.79 2957.71 2107.64 2952.28C2095.12 2949.35 2085.46 2943.65 2078.27 2936.31C2042.51 2963.9 1994.27 2978.02 1952.5 2988.71C1892 3004.19 1827.61 3010.55 1765.22 3008.69C1701.9 3006.79 1637.47 2994.6 1577.91 2973.15L1568.6 2969.76C1517.21 2950.8 1463.12 2926.81 1421.49 2891.37C1413.22 2887.3 1418.06 2872.28 1427.92 2875.46C1484.47 2893.75 1537.21 2915.22 1596.56 2924.02C1652.56 2932.31 1708.8 2933.69 1765.22 2930.27C1822.44 2926.81 1877.95 2915.14 1932.56 2897.87C1980.07 2882.85 2026.88 2855.73 2077.34 2852.18C2079.97 2848.54 2082.82 2845.02 2086.12 2841.81C2129.77 2799.41 2173.99 2820.62 2223.11 2836.06C2224.72 2836.57 2225.18 2837.43 2225.18 2838.27L2225.78 2837.42L2226.17 2836.9L2225.88 2837.25C2223.84 2839.56 2227.92 2830.99 2228.65 2829.24L2228.73 2829.05C2234.37 2813.65 2236.56 2797.09 2241.33 2781.42C2252.72 2744.01 2274.01 2709.77 2314.8 2700.82C2334.93 2696.39 2362.37 2703.13 2371.69 2723.97C2379.36 2741.1 2391.93 2749.78 2411.27 2749.33C2431.47 2748.86 2438.91 2737.08 2445.94 2719.33C2457.39 2690.46 2463.56 2660.42 2482.37 2634.94C2503.51 2606.29 2535.11 2589.56 2570.82 2588.19C2598.33 2587.14 2625.28 2595.17 2651.45 2602.59L2653.86 2603.32C2665.81 2607.07 2687.16 2615.51 2696.49 2609.29C2710.48 2599.95 2717.71 2545.52 2721.76 2525.16L2722.02 2523.88C2729.23 2489.18 2733.41 2454.22 2735.11 2418.84C2742.21 2270.82 2711.7 2123.57 2677.95 1980.31C2608.34 1684.86 2513.06 1399.85 2409.25 1114.9ZM425.829 1476.13C427.711 1473.31 431.822 1475.75 430.35 1478.78C423.526 1492.82 421.035 1507.57 416.428 1522.19C411.33 1538.38 402.667 1554.08 396.24 1569.79C385.833 1595.23 375.754 1620.82 365.589 1646.36C345.153 1697.71 326.152 1749.84 308.144 1802.1C271.985 1907.09 242.433 2015.02 220.817 2123.94C199.574 2230.95 181.789 2342.84 182.466 2452.23C182.77 2501.97 188.204 2553.19 207.944 2599.39C211.039 2606.64 214.672 2613.74 218.525 2620.64L220.86 2624.75C221.189 2625.34 221.534 2625.91 221.887 2626.49L224.021 2629.9C230.254 2620.76 248.22 2608.66 255.635 2602.25L256.665 2601.33L291.452 2569.15C306.597 2555.13 328.449 2551.76 346.762 2562.01C402.426 2593.16 400.62 2651.01 412.535 2705.61L413.062 2707.98C418.247 2730.93 427.214 2750 454.698 2745.5C483.373 2740.79 499.94 2711.65 509.304 2686.58L510.511 2683.26C527.059 2636.6 586.567 2638.46 603.699 2683.26L610.121 2700.22C623.408 2735.01 641.51 2776.97 675.8 2790.73C704.631 2802.31 737.667 2785 763.89 2774.25C778.309 2768.35 795.137 2780.67 798.981 2794.18C800.024 2797.86 800.726 2801.37 801.272 2804.83C828.688 2802.17 854.93 2808.72 881.893 2821.17C917.188 2837.45 961.563 2872.6 968.195 2913.34C976.05 2961.51 920.262 2984.25 891.474 2945.69C873.348 2921.4 866.785 2891.91 845.113 2868.83C832.383 2855.28 816.554 2843.52 799.944 2833.51C785.096 2885.99 701.762 2901.12 652.091 2885.58C604.401 2870.68 572.787 2835.53 549.178 2794.42C505.04 2837.57 443.794 2858.46 382.417 2820.81C346.879 2799.02 330.312 2760.9 323.891 2721.3C321.96 2709.39 321.848 2689.83 318.433 2672.64L315.122 2676.01C285.144 2706.32 250.292 2734.83 211.006 2728.28C159.509 2719.7 135.061 2662.39 119.003 2618.73C85.6074 2528 91.7612 2427.11 103.075 2332.91C115.47 2229.77 136.21 2127.61 163.657 2027.44C190.427 1929.73 225.083 1834.91 265.856 1742.19C286.639 1694.94 310.609 1648.85 336.373 1604.12C349.314 1581.67 363.403 1559.83 377.561 1538.12C392.173 1515.72 411.168 1498.07 425.829 1476.13ZM117.319 837.675C192.94 767.5 294.046 735.507 396.009 749.939C444.134 756.738 489.962 774.138 530.591 800.982C571.805 828.212 598.507 861.918 623.172 904.075C624.892 907.012 620.986 909.801 618.601 907.596C552.853 847.015 453.293 814.681 364.812 818.096C207.129 824.175 76.4034 963.682 86.2023 1122.68C91.0272 1200.98 135.041 1280.07 203.099 1320.37C275.225 1363.07 357.323 1348.89 434.615 1330.09C462.527 1323.3 476.586 1354.67 460.671 1374.85C382.28 1474.3 221.089 1448.3 130.589 1379.89C-44.2878 1247.72 -38.3079 982.094 117.319 837.675ZM371.242 994.273L377.95 993.122C434.366 983.806 554.474 973.06 572.144 1041.9C581.148 1076.96 546.324 1095.84 515.847 1094.29C490.716 1093.01 466.362 1085.14 441.554 1079.8C434.432 1104.42 432.01 1130.13 428.539 1155.48C425.508 1177.68 389.809 1171.65 390.231 1150.3C390.827 1120.61 404.619 1095.37 426.328 1076.95C421.261 1076.17 416.169 1075.51 411.027 1075.16C349.353 1071.02 288.417 1082.47 230.804 1103.62L236.896 1107.04C239.802 1108.05 238.56 1111.93 235.654 1111.53L206.996 1112.97C195.005 1115.78 187.926 1102.08 195.483 1093.19C239.882 1040.89 303.935 1006.28 371.242 994.273ZM2428.27 625.738C2514.41 615.417 2599.98 647.161 2646.21 722.944C2689.12 793.244 2692.84 882.247 2662.41 957.794C2645.12 1000.72 2619 1039.21 2586.67 1072.31C2570.69 1088.67 2552.37 1105.55 2532.11 1116.38C2508.52 1128.98 2490.96 1127.88 2466.07 1123.26C2450.04 1120.28 2438.99 1099.7 2444.11 1084.58L2447.92 1073.12C2452.09 1060.81 2455.98 1051.68 2467.38 1040.07C2477.33 1029.94 2489.23 1021.74 2500.17 1012.71C2523.69 993.282 2545.54 971.598 2561.88 945.685C2591.76 898.299 2602.11 843.834 2585.25 789.791C2567.15 731.755 2519.22 694.168 2459.17 687.164C2425.07 683.196 2390.47 686.785 2356.83 692.734L2336.33 696.439C2307.73 701.735 2284.39 707.887 2264.66 734.121C2263 736.326 2259.77 736.127 2258.81 733.358C2248.92 704.861 2279.13 679.433 2300.52 665.958C2337.69 642.578 2385.09 630.91 2428.27 625.738ZM2052.85 591.042C2048.64 585.671 2052.26 574.779 2060.49 577.909C2156.44 614.341 2237.26 703.046 2292.57 786.852C2309.31 812.206 2324.32 838.535 2337.88 865.603C2357.23 842.095 2386.13 825.088 2413.16 813.525L2416.16 812.262C2447.34 799.309 2514.79 777.14 2533.89 818.646C2540.03 832.003 2537.57 845.707 2526.8 856.059C2510.15 872.055 2483.56 865.994 2462.79 865.808C2420.82 865.448 2387.48 878.712 2350.34 891.591C2357.1 906.332 2363.49 921.254 2369.45 936.381C2377.57 956.954 2383.55 978.632 2393.39 998.472C2402.74 1017.33 2417.42 1034.18 2429.95 1050.9C2446.87 1073.47 2424.25 1111.61 2396.67 1108.9C2339.59 1103.28 2316.85 1056.12 2301.13 1006.12L2292.56 978.778C2279.72 937.936 2266.5 897.904 2247.22 859.052C2222.42 809.101 2192.83 760.306 2158.79 716.087C2125.41 672.731 2086.49 634.026 2052.85 591.042ZM1904.28 2.34967C1939.74 -10.8645 1969.55 34.6462 1951.9 64.285C1936.38 90.3159 1927.15 117.198 1923.54 145.402L2079.86 108.156C2110.94 100.754 2140.35 128.22 2131.76 160.057L2107.63 249.507C2138.81 239.081 2171.41 232.902 2204.93 230.723C2233.65 228.86 2249.51 258.505 2244.79 283.046C2234.93 334.173 2221.23 384.365 2202.98 433.119L2189.64 468.211C2173.96 509.071 2155.66 550.303 2117.84 573.323C2099.57 584.445 2075.88 570.063 2075.8 549.205C2075.58 498.701 2106.75 455.55 2124.08 408.984C2134.6 380.718 2143.52 351.961 2151.09 322.837C2121.75 331.135 2094.14 344.293 2068.06 361.646L2064.17 364.281C2033.33 385.415 1994.61 351.072 2002.28 318.108L2002.57 316.932L2032.03 206.474L1891.91 240.286C1863.03 247.259 1840.85 227.078 1838.11 199.308C1835.21 169.787 1837.08 140.409 1843.22 111.957C1750.61 141.118 1656.09 163.809 1561.3 185.005L1547.07 188.174C1339.02 234.374 1126.43 275.166 935.55 374.048C851.254 417.709 773.962 469.398 703.663 533.327C668.926 564.915 637.151 599.677 609.331 637.513C596.283 655.264 584.078 673.633 572.896 692.613L563.943 708.063C559.642 715.521 555.459 723.201 552.898 731.235L551.633 735.256C549.562 742.048 547.322 750.979 549.209 756.937C551.923 765.519 567.46 779.627 578.438 775.765C579.935 775.237 580.692 777.187 579.848 778.199C570.173 789.848 556.549 791.947 542.689 786.091C520.769 776.82 515.304 755.658 517.726 733.576C523.731 678.925 561.759 618.66 591.826 574.05C715.641 390.324 919.38 280.388 1124.9 211.51C1380.42 125.866 1651.28 96.625 1904.28 2.34967Z" fill="black"/>
<path fill-rule="evenodd" clip-rule="evenodd" d="M1750.14 2216.17C1708.4 2199.14 1671.15 2170.74 1643.92 2134.45C1634.46 2121.84 1632 2108.51 1633.99 2096.33C1636.22 2082.63 1644.33 2070.21 1655.38 2061.89C1666.47 2053.53 1680.34 2049.41 1693.74 2051.51C1705.4 2053.34 1716.99 2059.72 1726.17 2072.95L1728.09 2075.59C1744.28 2097.49 1765.37 2115.46 1789.41 2127.05C1812.58 2138.21 1838.49 2143.42 1865.3 2140.39C1916.37 2134.62 1951.57 2107 1988.98 2069.5C1993.62 2064.76 1998.26 2059.88 2002.92 2054.92C2005.86 2050.42 2009.95 2047.53 2014.49 2046.01C2019.53 2044.33 2025.22 2044.42 2030.44 2046.25C2035.48 2048 2039.98 2051.33 2043 2055.76C2045.86 2059.97 2047.49 2065.18 2046.96 2071.16C2043.54 2110.03 2023.22 2144.71 1994.35 2171.95C1962.3 2202.2 1919.8 2223.13 1879.8 2230.47C1835.72 2238.55 1790.81 2232.76 1750.14 2216.17ZM1900.59 1616.57C1947.48 1645.07 2018.93 1711.53 1968.48 1782.2C1909.11 1844.5 1823.61 1773.06 1781.49 1740.76C1742.42 1715.72 1698.53 1780.11 1734.78 1809.35C2039.2 2034.73 2162.74 1624.02 1924.31 1583.06C1898.05 1578.54 1888.3 1607.75 1900.59 1616.57ZM1355.06 1354.39C1360.24 1290.08 1458.19 1275.48 1467.93 1339.12C1476.65 1396.12 1466.38 1448.49 1440.71 1499.81C1416.17 1548.84 1354.51 1525.97 1349.84 1481.32C1343.59 1421.47 1351.84 1394.4 1355.06 1354.39ZM2100.62 1325.92C2114.27 1308.04 2133.99 1295.83 2157.61 1302.73C2231.41 1324.29 2209.66 1429.07 2183.74 1480.07C2169.66 1507.76 2124.13 1514.79 2103.56 1490.4C2070.03 1450.64 2053.97 1371.22 2096.6 1332.05C2097.76 1330.03 2099.04 1327.98 2100.62 1325.92ZM1439.67 1072.99L1451.32 1070.95C1487.39 1064.72 1532.23 1058.72 1557.74 1087.72C1571.27 1103.09 1575.93 1131.67 1557.74 1146.39C1525.75 1172.28 1490.38 1162.25 1452.04 1164.44C1420.45 1166.25 1390.08 1171.48 1359.65 1180.18C1292.88 1199.26 1238.48 1234.1 1181.46 1272.35C1173.97 1277.37 1166.34 1267.8 1169.91 1260.8C1202.82 1196.32 1266.62 1143.36 1330.51 1111.08C1364.62 1093.85 1401.94 1079.55 1439.67 1072.99ZM2033.34 1044.11L2042.27 1045.94C2139.37 1066.24 2265.53 1106.78 2311.51 1202.16C2313.26 1215.64 2311.41 1218.53 2309.9 1220.42L2309.4 1221.05C2308.16 1222.66 2307.17 1224.89 2301.33 1226.72C2299.7 1226.34 2298.07 1225.93 2296.41 1225.49C2275.33 1219.97 2258.66 1212.36 2242.51 1204.46L2225.01 1195.84C2204.7 1185.88 2184.21 1176.29 2162.5 1169.2C2116.16 1154.09 2068.5 1143.44 2020.1 1137.76C2009.61 1136.53 1999.5 1132.98 1991.53 1126.92C1983.97 1121.16 1978.19 1113.18 1975.56 1102.58C1972.14 1088.87 1973.12 1078.48 1980.48 1066.11C1986.02 1056.81 1993.94 1050.37 2003.03 1046.67C2012.3 1042.9 2022.85 1042.01 2033.34 1044.11Z" fill="black"/>
</svg>
